<?xml version="1.0" encoding="iso-8859-1"?>
<!-- Generator: Adobe Illustrator 19.0.0, SVG Export Plug-In . SVG Version: 6.00 Build 0)  -->
<svg version="1.1" id="Layer_1" xmlns="http://www.w3.org/2000/svg" xmlns:xlink="http://www.w3.org/1999/xlink" x="0px" y="0px"
	 viewBox="0 0 512 512" style="enable-background:new 0 0 512 512;" xml:space="preserve">
<rect x="208.444" y="8.342" style="fill:#FFFFFF;" width="95.937" height="64.653"/>
<path style="fill:#3D8AAA;" d="M223.996,96.12c0,24.003-21.493,48.007-48.007,48.007l0,0c-22.095,0-40.006,17.911-40.006,40.006
	v280.042c0,22.095,17.911,40.006,40.006,40.006h160.023c22.095,0,40.006-17.911,40.006-40.006V184.133
	c0-22.095-17.911-40.006-40.006-40.006l0,0c-26.513,0-48.007-24.003-48.007-48.007"/>
<polyline style="fill:#FFFFFF;" points="375.292,191.874 263.713,191.874 263.713,456.744 375.292,456.744 "/>
<path style="fill:#0C6D95;" d="M215.744,464.173V184.133c0-22.095,16.887-40.006,38.982-40.006
	c17.499,0,32.254-10.571,40.643-24.582c-4.321-7.218-7.364-15.265-7.364-23.608h-64.01c0,23.984-21.76,48.098-48.274,48.098
	c-22.095,0-40.273,18.003-40.273,40.098v280.041c0,22.095,18.445,40.54,40.54,40.54h77.713
	C231.607,504.713,215.744,486.268,215.744,464.173z"/>
<rect x="328.011" y="296.154" style="fill:#FF1D25;" width="48.01" height="40.002"/>
<polyline style="fill:#FFFFFF;" points="135.449,280.512 215.744,280.512 215.744,456.744 135.449,456.744 "/>
<rect x="239.728" y="32.327" style="fill:#FF1D25;" width="32.327" height="15.642"/>
<path d="M200.102,0v80.295h111.579V0H200.102z M215.744,64.653V47.969h15.642V32.327h-15.642V15.642h80.295v16.685h-16.685v15.642
	h16.685v16.685H215.744z"/>
<g>
	<rect x="135.449" y="312.839" style="fill:#FF1D25;" width="47.969" height="15.642"/>
	<rect x="176.118" y="424.418" style="fill:#FF1D25;" width="15.642" height="15.642"/>
	<rect x="151.091" y="424.418" style="fill:#FF1D25;" width="16.685" height="15.642"/>
	<polygon style="fill:#FF1D25;" points="335.665,232.543 320.023,232.543 320.023,216.901 304.382,216.901 304.382,232.543 
		287.697,232.543 287.697,248.185 304.382,248.185 304.382,264.87 320.023,264.87 320.023,248.185 335.665,248.185 	"/>
	<rect x="279.354" y="424.418" style="fill:#FF1D25;" width="15.642" height="15.642"/>
	<rect x="304.382" y="424.418" style="fill:#FF1D25;" width="15.642" height="15.642"/>
	<rect x="327.323" y="424.418" style="fill:#FF1D25;" width="15.642" height="15.642"/>
	<rect x="352.35" y="424.418" style="fill:#FF1D25;" width="22.941" height="15.642"/>
</g>
<path d="M336.012,136.306c-19.73,0-35.17-15.613-39.165-32.026h7.535V88.638h-95.937v15.642h6.815
	c-4.248,18.788-22.623,32.026-39.271,32.026c-26.372,0-47.827,21.456-47.827,47.827v280.041c0,26.372,21.454,47.827,47.827,47.827
	h160.023c26.372,0,47.827-21.454,47.827-47.827V184.133C383.838,157.761,362.384,136.306,336.012,136.306z M143.804,376.449v-15.642
	h39.614v-15.642h-39.614v-57.354h64.641v160.59h-64.641v-56.311h39.614v-15.642H143.804z M336.012,496.358H175.988
	c-17.747,0-32.185-14.438-32.185-32.185v-0.129h80.283V272.17h-80.283v-88.037c0-17.747,14.439-32.185,32.185-32.185
	c14.695,0,28.749-6.176,39.573-17.392c8.283-8.583,13.724-19.293,15.56-30.277h49.757c1.834,10.984,7.276,21.693,15.56,30.277
	c10.825,11.215,24.879,17.392,39.574,17.392c17.747,0,32.185,14.439,32.185,32.185v0.442H256.413v279.469h111.784v0.13
	C368.196,481.921,353.759,496.358,336.012,496.358z M320.023,287.811v56.311h48.173v16.685h-25.231v15.642h25.231v71.953h-96.142
	V200.217h96.142v87.595H320.023z M368.196,303.453v25.027h-32.531v-25.027H368.196z"/>
<g>
</g>
<g>
</g>
<g>
</g>
<g>
</g>
<g>
</g>
<g>
</g>
<g>
</g>
<g>
</g>
<g>
</g>
<g>
</g>
<g>
</g>
<g>
</g>
<g>
</g>
<g>
</g>
<g>
</g>
</svg>
